<svg xmlns="http://www.w3.org/2000/svg" viewBox="0 0 480 360" width="480" height="360" role="img" aria-label="Hoja NOTAS del Organizador de Estudios">
  <rect x="1" y="1" width="478" height="358" rx="10" fill="#ffffff" stroke="#cbd5e1" stroke-width="2"/>
  <path d="M1 11 a10 10 0 0 1 10 -10 h458 a10 10 0 0 1 10 10 v20 h-478 z" fill="#eef2f7"/>
  <circle cx="19" cy="16" r="5" fill="#f87171"/>
  <circle cx="35" cy="16" r="5" fill="#fbbf24"/>
  <circle cx="51" cy="16" r="5" fill="#34d399"/>
  <text x="342" y="21" text-anchor="middle" font-family="system-ui,-apple-system,'Segoe UI',Arial,sans-serif" font-size="11" fill="#64748b">CalculaFácil_2026-2027 · NOTAS</text>
  <rect x="1" y="32" width="478" height="27" fill="#f8fafc"/>
  <rect x="128" y="56" width="104" height="3" fill="#14b8a6"/>
  <rect x="128" y="35" width="104" height="24" fill="#ffffff"/>
  <text x="132" y="48" font-family="system-ui,-apple-system,'Segoe UI',Arial,sans-serif" font-size="10" fill="#94a3b8">MI CURSO</text>
  <text x="20" y="50" font-family="system-ui,-apple-system,'Segoe UI',Arial,sans-serif" font-size="10" font-weight="700" fill="#0f172a">NOTAS</text>
  <text x="224" y="48" font-family="system-ui,-apple-system,'Segoe UI',Arial,sans-serif" font-size="10" fill="#94a3b8">ASISTENCIA</text>
  <text x="392" y="48" font-family="system-ui,-apple-system,'Segoe UI',Arial,sans-serif" font-size="10" fill="#94a3b8">GUÍA</text>
  <rect x="16" y="66" width="448" height="22" rx="4" fill="#1e293b"/>
  <text x="30" y="81" font-family="system-ui,-apple-system,'Segoe UI',Arial,sans-serif" font-size="9" font-weight="700" fill="#94a3b8">ASIGNATURA</text>
  <text x="180" y="81" font-family="system-ui,-apple-system,'Segoe UI',Arial,sans-serif" font-size="9" font-weight="700" fill="#94a3b8">EVAL 1</text>
  <text x="244" y="81" font-family="system-ui,-apple-system,'Segoe UI',Arial,sans-serif" font-size="9" font-weight="700" fill="#94a3b8">EVAL 2</text>
  <text x="310" y="81" font-family="system-ui,-apple-system,'Segoe UI',Arial,sans-serif" font-size="9" font-weight="700" fill="#94a3b8">PESO</text>
  <text x="380" y="81" font-family="system-ui,-apple-system,'Segoe UI',Arial,sans-serif" font-size="9" font-weight="700" fill="#94a3b8">MEDIA</text>
  <g font-family="system-ui,-apple-system,'Segoe UI',Arial,sans-serif" font-size="9.5" fill="#1f2937">
    <rect x="16" y="88" width="448" height="24" fill="#ffffff"/>
    <rect x="16" y="112" width="448" height="24" fill="#f8fafc"/>
    <rect x="16" y="136" width="448" height="24" fill="#ffffff"/>
    <rect x="16" y="160" width="448" height="24" fill="#f8fafc"/>
    <text x="30" y="104">Matemáticas</text><text x="180" y="104">7</text><text x="244" y="104">8,5</text><text x="310" y="104">40 %</text><text x="380" y="104" font-weight="700">7,75</text>
    <text x="30" y="128">Historia</text><text x="180" y="128">6,5</text><text x="244" y="128">7</text><text x="310" y="128">25 %</text><text x="380" y="128" font-weight="700">6,75</text>
    <text x="30" y="152">Lengua</text><text x="180" y="152">8</text><text x="244" y="152">6</text><text x="310" y="152">20 %</text><text x="380" y="152" font-weight="700">7,00</text>
    <text x="30" y="176">Inglés</text><text x="180" y="176">9</text><text x="244" y="176">7,5</text><text x="310" y="176">15 %</text><text x="380" y="176" font-weight="700">8,25</text>
  </g>
  <rect x="16" y="200" width="448" height="30" rx="7" fill="#f0fdfa" stroke="#99f6e4"/>
  <text x="30" y="219" font-family="system-ui,-apple-system,'Segoe UI',Arial,sans-serif" font-size="10" font-weight="700" fill="#0d9488">Cada profe pondera a su manera: aquí indicas el peso real de cada nota.</text>
  <rect x="16" y="244" width="448" height="62" rx="8" fill="#eff6ff" stroke="#bfdbfe"/>
  <text x="30" y="266" font-family="system-ui,-apple-system,'Segoe UI',Arial,sans-serif" font-size="11" font-weight="800" fill="#1e40af">MINI-CALCULADORA DEL EXAMEN</text>
  <text x="30" y="288" font-family="system-ui,-apple-system,'Segoe UI',Arial,sans-serif" font-size="10" fill="#374151">Media objetivo 7,50 · Media actual 6,80 · Peso del examen 30 %</text>
  <text x="30" y="302" font-family="system-ui,-apple-system,'Segoe UI',Arial,sans-serif" font-size="13" font-weight="800" fill="#0f172a">→ Necesitas un <tspan fill="#1d4ed8">9,1</tspan> en el próximo examen.</text>
  <rect x="16" y="318" width="448" height="28" rx="7" fill="rgba(20,184,166,0.10)" stroke="rgba(13,148,136,0.35)"/>
  <text x="30" y="336" font-family="system-ui,-apple-system,'Segoe UI',Arial,sans-serif" font-size="10" font-weight="700" fill="#0d9488">Sabes qué necesitas antes de sentarte a estudiar.</text>
</svg>